<?xml version="1.0" encoding="iso-8859-1"?>
<!-- Generator: Adobe Illustrator 19.0.0, SVG Export Plug-In . SVG Version: 6.00 Build 0)  -->
<svg version="1.1" id="Layer_1" xmlns="http://www.w3.org/2000/svg" xmlns:xlink="http://www.w3.org/1999/xlink" x="0px" y="0px"
	 viewBox="0 0 512 512" style="enable-background:new 0 0 512 512;" xml:space="preserve">
<g>
	<g>
		<path d="M394.471,95.916l-13.715-13.715c-62.5-62.498-164.19-62.495-226.687,0c-53.815,53.815-63.38,61.131-77.141,85.839
			c-0.002,0.002-0.003,0.005-0.003,0.006c-26.666,47.903-26.261,105.526-1.689,152.507L6.979,388.809
			C2.51,393.278,0,399.341,0,405.661c0,6.321,2.51,12.382,6.979,16.851l47.182,47.18c9.305,9.305,24.394,9.306,33.701,0
			l68.235-68.235c46.505,24.331,104.161,25.214,152.521-1.708c0.002-0.002,0.003-0.002,0.005-0.003
			c24.999-13.915,32.917-24.215,85.847-77.146C456.968,260.104,456.968,158.413,394.471,95.916z M164.271,350.584
			c-12.211-8.951-32.274-29.974-38.68-38.859c-18.546-25.864-25.185-58.482-18.703-89.245
			c3.439,3.44,140.777,140.779,147.304,147.305C223.079,376.34,190.184,369.463,164.271,350.584z"/>
	</g>
</g>
<g>
	<g>
		<path d="M447.385,347.442c-35.629,0-64.615,28.985-64.615,64.615c0,35.629,28.985,64.615,64.615,64.615
			c35.629,0,64.615-28.985,64.615-64.615C512,376.427,483.015,347.442,447.385,347.442z"/>
	</g>
</g>
<g>
</g>
<g>
</g>
<g>
</g>
<g>
</g>
<g>
</g>
<g>
</g>
<g>
</g>
<g>
</g>
<g>
</g>
<g>
</g>
<g>
</g>
<g>
</g>
<g>
</g>
<g>
</g>
<g>
</g>
</svg>
